# xmcd
#
# Track frame offsets: 
#        150
#        5832
#        13807
#        19757
#        31542
#        39835
#        47352
#        53317
#        60817
#        74240
#        83862
#        98207
#        108607
#        117847
#        127792
#        138647
#        148852
#        163182
#        174705
#        188322
#        198675
#        205550
#        219275
#        230427
#
# Disc length: 3199 seconds
#
# Revision: 0
# Processed by: cddbd v1.5.2PL0 Copyright (c) Steve Scherf et al.
# Submitted via: ExactAudioCopy v0.99pb3
#
DISCID=3f0c7d18
DTITLE=Skillet Lickers - Skillet Lickers Music - The Tanner Legacy 195
DTITLE=5-1991
DYEAR=1992
DGENRE=Country
TTITLE0=Mississippi Sawyer
TTITLE1=Sweet Bunch Of Daisies
TTITLE2=Carroll County Blues
TTITLE3=I Don't Love Nobody
TTITLE4=Birmingham Special (Tanner's Boarding House)
TTITLE5=Flop-Eared Mule
TTITLE6=Soldier's Joy
TTITLE7=Down Yonder
TTITLE8=Liberty
TTITLE9=Maggie
TTITLE10=Out Of My Bondage
TTITLE11=Give The Fiddler A Dram
TTITLE12=Leather Britches
TTITLE13=Whistlin' Rufus
TTITLE14=Sinful To Flirt
TTITLE15=Watermelon On The Vine
TTITLE16=Three Nights' Experience
TTITLE17=The Lonesome Hungry Hash House
TTITLE18=Devilish Mary
TTITLE19=Under The Double Eagle
TTITLE20=Soppin' The Gravy
TTITLE21=Railroad Bill
TTITLE22=Down Yonder
TTITLE23=Katy Hill
EXTD=
EXTT0=
EXTT1=
EXTT2=
EXTT3=
EXTT4=
EXTT5=
EXTT6=
EXTT7=
EXTT8=
EXTT9=
EXTT10=
EXTT11=
EXTT12=
EXTT13=
EXTT14=
EXTT15=
EXTT16=
EXTT17=
EXTT18=
EXTT19=
EXTT20=
EXTT21=
EXTT22=
EXTT23=
PLAYORDER=
